<svg xmlns="http://www.w3.org/2000/svg" width="32" height="32" enable-background="new 0 0 32 32" viewBox="0 0 32 32"><path fill="#263238" d="M21.504,17c-0.056,0-0.112-0.01-0.167-0.029c-0.2-0.07-0.333-0.259-0.333-0.471V13h-5
		c-0.276,0-0.5-0.224-0.5-0.5s0.224-0.5,0.5-0.5h5.5c0.276,0,0.5,0.224,0.5,0.5v2.592l2.362-2.907
		C24.461,12.067,24.604,12,24.754,12h4.75c0.275,0,0.5-0.225,0.5-0.5v-9c0-0.275-0.225-0.5-0.5-0.5h-25c-0.275,0-0.5,0.225-0.5,0.5
		v9c0,0.275,0.225,0.5,0.5,0.5h1.5c0.276,0,0.5,0.224,0.5,0.5S6.28,13,6.004,13h-1.5c-0.827,0-1.5-0.673-1.5-1.5v-9
		c0-0.827,0.673-1.5,1.5-1.5h25c0.827,0,1.5,0.673,1.5,1.5v9c0,0.827-0.673,1.5-1.5,1.5h-4.512l-3.101,3.815
		C21.795,16.935,21.651,17,21.504,17z"/><path fill="#263238" d="M18.644 17.674l-4.762-1.652-.295-2.355c-.239.106-.516.168-.833.168-.056 0-.103-.012-.155-.016l.329 2.635c.023.189.152.349.332.41l5.055 1.756c.9.314 1.689 1.427 1.689 2.381v4.493c0 .276.224.5.5.5s.5-.224.5-.5V21C21.004 19.621 19.945 18.129 18.644 17.674zM1.504 25.993c-.276 0-.5-.224-.5-.5V21c0-1.379 1.059-2.871 2.359-3.326l4.762-1.641.063-.512c.034-.274.289-.465.559-.434.273.034.468.284.434.559l-.103.82c-.023.189-.153.348-.333.41l-5.054 1.742C2.793 18.934 2.004 20.047 2.004 21v4.493C2.004 25.77 1.78 25.993 1.504 25.993zM11.004 30.961c-.083 0-.167-.021-.242-.063l-6.5-3.591c-.16-.089-.259-.257-.258-.44l.019-3.346c.002-.275.229-.543.503-.496.276.001.499.227.497.502l-.017 3.049 6.007 3.319 5.991-3.06v-3.313c0-.276.224-.5.5-.5s.5.224.5.5v3.619c0 .188-.105.36-.272.445l-6.5 3.319C11.16 30.943 11.082 30.961 11.004 30.961zM11.004 7c-.943 0-1.68-.172-2.131-.317C8.609 6.598 8.465 6.316 8.549 6.054 8.634 5.791 8.914 5.647 9.178 5.73 9.562 5.854 10.189 6 11.004 6c1.808 0 2.774-.446 2.784-.451.248-.115.547-.014.666.236.118.248.016.545-.232.664C14.176 6.473 13.063 7 11.004 7z"/><path fill="#263238" d="M11.004 15c-2.779 0-4.192-2.344-4.201-6.969C6.801 6.857 6.926 5.168 8.029 4.063 8.733 3.357 9.733 3 11.004 3s2.271.357 2.975 1.063c1.104 1.105 1.229 2.795 1.227 3.969C15.196 12.656 13.783 15 11.004 15zM11.004 4c-1.009 0-1.75.252-2.267.769C8.105 5.401 7.8 6.469 7.803 8.029 7.811 12.047 8.857 14 11.004 14s3.193-1.953 3.201-5.971c.003-1.561-.303-2.628-.935-3.261C12.754 4.252 12.013 4 11.004 4zM22.504 9h-4c-.276 0-.5-.224-.5-.5s.224-.5.5-.5h4c.276 0 .5.224.5.5S22.78 9 22.504 9zM27.504 6h-9c-.276 0-.5-.224-.5-.5s.224-.5.5-.5h9c.276 0 .5.224.5.5S27.78 6 27.504 6z"/></svg>