<svg xmlns="http://www.w3.org/2000/svg" enable-background="new 0 0 512 512" viewBox="0 0 512 512"><path fill="none" stroke="#000" stroke-linecap="round" stroke-linejoin="round" stroke-miterlimit="10" stroke-width="15" d="
		M462.847,252c7.532,28.33-4.145,63.201-30.313,98.098c-28.848,38.514-75.322,77.061-133.067,106.946
		c-18.513,9.583-37.076,17.693-55.337,24.332c-98.35,35.821-188.104,29.216-213.874-20.603
		c-15.62-30.186-4.716-70.405,25.47-110.675c20.754-27.694,50.638-55.438,87.279-79.921c7.96,13.128,18.379,24.6,30.637,33.764
		c0.017,0,0.017,0.017,0.033,0.033c7.718,7.333,14.05,14.008,19.247,20.025"/><path fill="none" stroke="#000" stroke-linecap="round" stroke-linejoin="round" stroke-miterlimit="10" stroke-width="15" d="
		M211.854,351c4.832,9.512,4.832,14.266,4.832,14.266v7.542h58.565v-7.542c0-0.05,0.033-25.152,58.515-75.288
		c5.268-5.602,9.867-11.723,13.797-18.262c10.97-18.345,16.606-40.036,16.606-63.298c0-4.097-0.201-8.161-0.619-12.158
		c22.928,0.399,43.174,4.294,59.45,11.696"/><line x1="263.787" x2="226.143" y1="446.133" y2="446.133" fill="none" stroke="#000" stroke-linecap="round" stroke-linejoin="round" stroke-miterlimit="10" stroke-width="15"/><line x1="293.414" x2="199.304" y1="423.002" y2="423.002" fill="none" stroke="#000" stroke-linecap="round" stroke-linejoin="round" stroke-miterlimit="10" stroke-width="15"/><line x1="293.414" x2="199.304" y1="397.905" y2="397.905" fill="none" stroke="#000" stroke-linecap="round" stroke-linejoin="round" stroke-miterlimit="10" stroke-width="15"/><line x1="216.686" x2="199.31" y1="372.808" y2="372.808" fill="none" stroke="#000" stroke-linecap="round" stroke-linejoin="round" stroke-miterlimit="10" stroke-width="15"/><line x1="293.412" x2="275.251" y1="372.808" y2="372.808" fill="none" stroke="#000" stroke-linecap="round" stroke-linejoin="round" stroke-miterlimit="10" stroke-width="15"/><path fill="none" stroke="#000" stroke-linecap="round" stroke-linejoin="round" stroke-miterlimit="10" stroke-width="15" d="
			M184.738,315c-3.329-3.493-7.005-7.168-11.064-11.025c-0.017-0.017-0.017-0.033-0.033-0.033
			c-12.258-9.164-22.677-20.637-30.637-33.764c-10.954-17.994-17.242-39.149-17.242-61.759c0-4.114,0.201-8.161,0.619-12.175
			c6.087-60.12,56.859-107.029,118.585-107.029c61.742,0,112.498,46.926,118.585,107.046c0.418,3.997,0.619,8.061,0.619,12.158
			c0,23.262-5.636,44.952-16.606,63.298c-3.93,6.539-8.529,12.66-13.797,18.262c-58.481,50.136-58.515,75.238-58.515,75.288v7.542
			h-58.565v-7.542c0,0,0-4.754-4.832-14.266"/><polygon fill="none" stroke="#000" stroke-linecap="round" stroke-linejoin="round" stroke-miterlimit="10" stroke-width="15" points="275.251 372.808 275.251 422.426 227.84 422.995 216.686 423.128 216.686 372.808"/><path fill="none" stroke="#000" stroke-linecap="round" stroke-linejoin="round" stroke-miterlimit="10" stroke-width="15" d="
		M455.596,462.237c-25.771,49.819-113.118,54.96-211.467,19.139c-18.262-6.639-36.825-14.75-55.337-24.332
		c-57.746-29.885-104.22-68.432-133.067-106.946c-30.186-40.253-41.089-80.473-25.47-110.658"/><path fill="none" stroke="#000" stroke-linecap="round" stroke-linejoin="round" stroke-miterlimit="10" stroke-width="15" d="
		M211.854,351c4.832,9.512,4.832,14.266,4.832,14.266v7.542h58.565v-7.542c0-0.05,0.033-25.152,58.515-75.288
		c5.268-5.602,9.867-11.723,13.797-18.262c35.587,24.115,64.652,51.274,84.971,78.382c5.983,7.982,11.209,15.962,15.62,23.862"/><line x1="192.92" x2="192.92" y1="324" y2="324" fill="none" stroke="#000" stroke-linecap="round" stroke-linejoin="round" stroke-miterlimit="10" stroke-width="15"/><path fill="none" stroke="#000" stroke-linecap="round" stroke-linejoin="round" stroke-miterlimit="10" stroke-width="15" d="
		M126.38,196.243c-0.418,4.014-0.619,8.061-0.619,12.175c0,22.61,6.288,43.765,17.242,61.759c7.96,13.128,18.379,24.6,30.637,33.764
		c0.017,0,0.017,0.017,0.033,0.033c7.718,7.333,14.05,14.008,19.247,20.025"/><circle cx="41.608" cy="208.013" r="33.865" fill="none" stroke="#000" stroke-linecap="round" stroke-linejoin="round" stroke-miterlimit="10" stroke-width="15"/><circle cx="470.392" cy="431.77" r="33.865" fill="none" stroke="#000" stroke-linecap="round" stroke-linejoin="round" stroke-miterlimit="10" stroke-width="15"/><line x1="243" x2="243" y1="54" y2="9" fill="none" stroke="#000" stroke-linecap="round" stroke-linejoin="round" stroke-miterlimit="10" stroke-width="15"/><line x1="351" x2="378" y1="99" y2="72" fill="none" stroke="#000" stroke-linecap="round" stroke-linejoin="round" stroke-miterlimit="10" stroke-width="15"/><line x1="135" x2="108" y1="99" y2="72" fill="none" stroke="#000" stroke-linecap="round" stroke-linejoin="round" stroke-miterlimit="10" stroke-width="15"/></svg>